<?xml version="1.0" standalone="no"?>
<!DOCTYPE svg PUBLIC "-//W3C//DTD SVG 20010904//EN"
 "http://www.w3.org/TR/2001/REC-SVG-20010904/DTD/svg10.dtd">
<svg version="1.0" xmlns="http://www.w3.org/2000/svg"
 width="2726.000000pt" height="2726.000000pt" viewBox="0 0 2726.000000 2726.000000"
 preserveAspectRatio="xMidYMid meet">
<metadata>
Created by potrace 1.14, written by Peter Selinger 2001-2017
</metadata>
<g transform="translate(0.000000,2726.000000) scale(0.100000,-0.100000)"
fill="#000000" stroke="none">
<path d="M12360 23740 c0 -3 -44 -5 -98 -5 -117 -1 -366 -13 -405 -20 -15 -3
-55 -7 -87 -8 -33 -1 -60 -4 -60 -7 0 -3 -26 -6 -57 -7 -32 0 -78 -4 -103 -7
-25 -3 -63 -8 -85 -10 -58 -7 -117 -15 -140 -20 -26 -5 -98 -15 -155 -21 -25
-3 -61 -10 -80 -15 -19 -5 -51 -11 -70 -14 -33 -4 -59 -9 -120 -22 -14 -3 -32
-7 -40 -8 -33 -4 -255 -61 -260 -66 -5 -5 -32 -11 -67 -13 -13 0 -23 -4 -23
-7 0 -3 -12 -7 -26 -8 -15 -1 -32 -6 -38 -10 -6 -5 -40 -17 -76 -27 -36 -10
-71 -23 -77 -28 -7 -5 -13 -7 -13 -3 0 3 -15 0 -34 -8 -19 -8 -37 -12 -40 -8
-3 3 -6 1 -6 -4 0 -5 -8 -10 -18 -11 -16 -1 -101 -32 -207 -74 -16 -7 -37 -13
-45 -15 -8 -2 -23 -7 -35 -13 -20 -9 -41 -17 -60 -21 -5 -1 -14 -5 -20 -10 -5
-4 -35 -15 -65 -25 -30 -10 -60 -22 -66 -26 -6 -5 -14 -6 -17 -2 -4 3 -7 1 -7
-5 0 -7 -3 -11 -7 -10 -5 1 -30 -8 -57 -20 -27 -12 -53 -22 -57 -22 -5 0 -17
-4 -27 -10 -14 -8 -83 -38 -102 -45 -18 -6 -55 -23 -125 -55 -44 -20 -84 -38
-90 -40 -5 -1 -22 -11 -37 -22 -16 -11 -28 -16 -28 -13 0 8 -58 -38 -122 -98
l-48 -43 55 -49 c65 -57 121 -96 127 -89 3 2 11 -2 18 -11 7 -8 21 -15 30 -15
10 0 20 -3 22 -7 2 -5 68 -41 148 -81 80 -41 244 -124 365 -185 121 -61 222
-115 223 -119 2 -5 7 -6 12 -3 5 3 16 -2 24 -11 9 -8 16 -13 16 -10 0 3 27
-11 61 -30 33 -18 64 -34 69 -34 4 0 13 -7 20 -15 7 -8 16 -12 21 -9 5 3 9 0
9 -6 0 -6 4 -9 9 -5 5 3 12 1 15 -4 4 -5 32 -22 64 -38 31 -15 63 -34 70 -41
8 -7 18 -10 23 -7 5 4 9 2 9 -2 0 -5 21 -19 48 -32 l47 -24 -35 -14 c-19 -8
-48 -21 -63 -29 -16 -8 -33 -12 -38 -8 -5 3 -9 1 -9 -4 0 -5 -7 -9 -15 -10 -8
-1 -22 -3 -30 -4 -8 -1 -15 -5 -15 -10 0 -4 -8 -8 -18 -8 -10 0 -23 -5 -30
-12 -7 -7 -12 -9 -12 -5 0 4 -15 0 -32 -10 -18 -9 -39 -16 -45 -15 -7 2 -13
-2 -13 -8 0 -5 -3 -9 -7 -8 -11 2 -66 -13 -78 -22 -5 -4 -28 -13 -50 -20 -21
-7 -62 -25 -90 -39 -27 -14 -52 -26 -55 -26 -3 0 -30 -12 -60 -27 -114 -55
-195 -91 -196 -87 -1 2 -12 -5 -24 -16 -12 -11 -24 -19 -26 -18 -7 4 -99 -39
-116 -55 -10 -8 -18 -11 -18 -6 0 5 -4 4 -8 -1 -4 -6 -32 -23 -62 -38 -72 -36
-116 -61 -135 -77 -8 -7 -15 -9 -15 -6 0 4 -12 -1 -27 -11 -16 -10 -41 -25
-58 -33 -16 -8 -49 -27 -72 -43 -24 -15 -43 -25 -43 -22 0 3 -15 -5 -33 -19
-19 -15 -38 -26 -44 -26 -5 0 -18 -8 -29 -18 -10 -10 -23 -20 -29 -21 -11 -4
-19 -9 -120 -71 -38 -24 -75 -43 -82 -43 -7 0 -13 -4 -13 -8 0 -5 -14 -16 -32
-25 -18 -9 -38 -23 -46 -30 -7 -8 -17 -14 -21 -14 -4 0 -18 -9 -31 -20 -12
-11 -27 -17 -31 -14 -5 3 -9 1 -9 -3 0 -5 -25 -24 -55 -42 -30 -18 -59 -39
-66 -47 -6 -8 -15 -11 -20 -8 -5 3 -9 0 -9 -5 0 -6 -5 -11 -10 -11 -10 0 -110
-67 -120 -80 -3 -3 -12 -9 -20 -13 -8 -4 -49 -31 -90 -62 -41 -30 -85 -59 -97
-65 -13 -5 -23 -14 -23 -20 0 -5 -7 -10 -15 -10 -8 0 -15 -5 -15 -11 0 -5 -4
-8 -9 -5 -5 3 -12 -1 -15 -10 -3 -8 -10 -13 -15 -10 -5 4 -11 2 -13 -2 -1 -5
-50 -44 -108 -87 -58 -42 -106 -81 -108 -86 -2 -5 -9 -9 -16 -9 -10 0 -27 -13
-97 -73 -9 -8 -21 -16 -27 -18 -6 -2 -24 -14 -39 -26 -110 -89 -187 -149 -201
-158 -9 -5 -25 -19 -36 -30 -12 -11 -37 -33 -56 -49 -93 -75 -114 -93 -141
-118 -16 -15 -29 -24 -29 -21 0 6 -136 -125 -223 -215 -40 -42 -92 -118 -132
-194 -11 -21 -23 -38 -27 -38 -21 0 -4 -30 20 -36 15 -3 50 -12 77 -20 28 -7
100 -14 160 -15 61 -1 118 -6 127 -11 9 -4 19 -4 22 1 3 4 18 7 33 5 16 -2 62
-6 103 -10 41 -3 91 -8 110 -9 90 -9 180 -16 230 -20 30 -2 55 -4 55 -6 0 -2
13 -3 125 -13 30 -2 62 -7 70 -9 8 -3 44 -8 80 -11 65 -6 125 -13 190 -22 47
-7 132 -16 150 -16 8 0 22 -2 30 -5 8 -3 29 -7 45 -9 17 -1 53 -5 80 -9 28 -4
66 -8 85 -9 19 0 41 -5 48 -9 7 -5 22 -7 35 -6 12 1 29 -1 37 -4 8 -3 67 -12
130 -21 128 -18 159 -22 210 -31 19 -3 49 -8 65 -10 62 -8 112 -15 164 -25 30
-5 58 -7 63 -4 4 3 8 1 8 -3 0 -5 10 -9 23 -9 12 -1 38 -4 57 -7 19 -3 91 -15
160 -27 135 -22 165 -27 208 -36 15 -3 41 -7 57 -9 17 -2 41 -6 55 -9 14 -2
86 -15 160 -27 74 -12 137 -25 140 -28 3 -3 16 -6 30 -5 14 0 29 -2 35 -5 5
-2 21 -6 35 -8 67 -9 135 -20 135 -23 0 -1 11 -4 25 -6 14 -2 41 -7 60 -10 66
-10 85 -14 180 -34 52 -12 106 -23 120 -26 40 -7 65 -12 65 -14 0 -1 9 -3 20
-5 61 -9 99 -16 185 -35 52 -11 111 -23 130 -26 19 -3 40 -10 46 -15 6 -5 13
-6 16 -4 3 3 25 1 49 -5 24 -6 54 -13 67 -15 12 -3 32 -7 45 -10 12 -3 40 -9
62 -13 50 -11 47 -10 65 -16 8 -2 62 -14 120 -26 58 -12 114 -24 125 -27 11
-2 29 -6 40 -8 34 -7 60 -13 60 -15 0 -1 10 -3 23 -6 12 -2 32 -6 45 -8 12 -3
25 -5 30 -5 16 -2 6 -21 -11 -21 -18 0 -97 -23 -137 -40 -22 -9 -99 -34 -102
-32 -1 0 -33 -11 -70 -25 -37 -14 -88 -32 -113 -41 -25 -8 -48 -20 -52 -26 -4
-6 -8 -7 -8 -2 0 4 -11 1 -25 -8 -14 -9 -25 -14 -25 -12 0 3 -20 -3 -45 -14
-25 -11 -45 -17 -45 -14 0 2 -10 -2 -23 -11 -13 -8 -27 -12 -30 -8 -4 3 -7 1
-7 -5 0 -7 -3 -11 -7 -10 -5 1 -18 -3 -29 -10 -12 -6 -24 -8 -28 -5 -3 3 -6 1
-6 -5 0 -7 -3 -11 -7 -10 -5 1 -47 -17 -95 -40 -48 -23 -92 -42 -97 -42 -6 0
-11 -5 -11 -12 0 -6 -3 -9 -6 -5 -3 3 -31 -8 -62 -24 -31 -16 -62 -29 -69 -29
-7 0 -13 -5 -13 -11 0 -5 -4 -8 -9 -5 -5 3 -14 -1 -21 -9 -7 -8 -19 -15 -26
-15 -8 0 -14 -5 -14 -11 0 -5 -4 -7 -10 -4 -5 3 -10 2 -10 -3 0 -5 -8 -12 -17
-15 -10 -4 -36 -17 -58 -30 -22 -13 -62 -36 -90 -51 -69 -39 -169 -99 -175
-106 -3 -3 -16 -11 -30 -17 -14 -7 -87 -53 -163 -103 -76 -49 -143 -90 -148
-90 -5 0 -9 -4 -9 -8 0 -5 -16 -17 -35 -28 -19 -10 -35 -21 -35 -25 0 -3 -27
-23 -60 -44 -33 -21 -60 -42 -60 -48 0 -6 -3 -8 -6 -5 -3 4 -45 -23 -92 -58
-48 -36 -98 -73 -111 -82 -13 -9 -28 -21 -35 -27 -6 -5 -29 -23 -51 -40 -22
-16 -45 -34 -52 -40 -15 -12 -25 -20 -83 -65 -25 -19 -47 -37 -50 -40 -3 -3
-43 -36 -90 -74 -47 -38 -95 -78 -107 -90 -11 -12 -40 -37 -64 -56 -24 -19
-57 -50 -75 -67 -18 -18 -34 -33 -37 -33 -2 0 -31 -26 -64 -57 -169 -162 -164
-158 -213 -157 -25 1 -56 -5 -70 -12 -14 -7 -54 -25 -90 -40 -113 -45 -144
-62 -177 -93 -18 -16 -33 -27 -33 -24 0 3 -49 -43 -108 -103 -99 -99 -162
-173 -162 -189 0 -3 -9 -15 -20 -27 -11 -12 -20 -28 -20 -35 0 -8 -3 -12 -8
-9 -12 7 -62 -111 -64 -154 0 -8 -4 -20 -9 -26 -5 -6 -9 -25 -11 -42 -1 -18
-5 -32 -9 -32 -3 0 -5 -15 -4 -32 1 -18 -9 -54 -22 -80 -13 -27 -23 -49 -22
-50 1 -2 -13 -27 -30 -57 -38 -64 -44 -93 -44 -226 0 -97 8 -165 21 -175 13
-10 22 -80 12 -95 -19 -28 -59 -147 -64 -190 -12 -102 -15 -231 -6 -260 13
-42 41 -153 47 -184 2 -14 8 -28 12 -31 5 -3 7 -13 6 -22 -2 -9 3 -22 11 -29
8 -6 14 -20 14 -29 0 -10 3 -20 8 -22 4 -2 26 -40 49 -85 38 -76 64 -111 121
-170 12 -13 22 -26 22 -29 0 -7 100 -126 124 -147 12 -11 38 -33 60 -50 21
-18 47 -41 57 -51 19 -19 18 -20 -10 -32 -16 -7 -32 -17 -35 -23 -4 -5 -13 -8
-20 -5 -7 3 -19 -2 -26 -10 -7 -9 -16 -13 -21 -10 -5 3 -9 1 -9 -4 0 -4 -27
-26 -60 -48 -33 -21 -60 -42 -60 -45 0 -3 -8 -14 -18 -25 -24 -25 -72 -123
-72 -146 0 -10 -5 -18 -10 -18 -6 0 -9 -6 -8 -12 2 -9 -11 -12 -47 -10 -54 3
-58 5 -61 30 -2 9 -6 33 -10 52 -4 19 -8 46 -9 60 -3 38 -25 111 -46 151 -10
20 -15 39 -12 43 4 3 1 6 -6 6 -7 0 -10 3 -8 8 3 4 -6 29 -18 57 -13 27 -21
53 -19 57 3 5 1 8 -4 8 -4 0 -19 29 -31 65 -13 36 -27 65 -31 65 -7 0 -11 9
-24 50 -1 5 -7 14 -43 75 -7 11 -20 36 -30 55 -42 84 -126 226 -151 255 -15
17 -38 46 -52 65 -14 18 -41 53 -60 76 -19 23 -46 56 -60 74 -74 97 -122 150
-135 150 -8 0 -15 5 -15 10 0 6 -9 10 -20 10 -11 0 -20 4 -20 9 0 5 -13 12
-30 16 -25 5 -28 10 -20 24 5 10 7 20 5 23 -3 3 -7 25 -10 49 -9 75 -27 164
-36 173 -5 6 -9 18 -9 28 0 30 -74 136 -92 130 -4 -1 -8 5 -8 13 0 8 -4 15 -8
15 -8 0 -23 11 -69 50 -7 5 -18 10 -24 10 -7 0 -9 3 -6 6 3 4 2 16 -4 27 -9
15 -8 18 2 12 6 -5 10 -4 7 1 -3 5 -14 27 -24 49 -10 22 -25 48 -34 59 -25 31
-110 117 -110 112 0 -3 -23 8 -50 24 -28 17 -57 30 -65 30 -8 0 -17 5 -20 10
-3 6 -14 10 -24 10 -10 0 -44 24 -74 53 -31 28 -62 57 -70 62 -7 6 -33 28 -58
50 -25 22 -57 48 -70 59 -13 10 -50 41 -81 67 -31 27 -61 49 -67 49 -6 0 -11
5 -11 10 0 6 -7 10 -15 10 -7 0 -18 6 -22 14 -9 14 -53 40 -53 31 0 -3 -13 1
-28 9 -35 18 -152 46 -192 46 -16 0 -32 5 -35 10 -4 7 -12 7 -24 0 -10 -5 -21
-7 -24 -4 -8 9 -102 8 -115 0 -7 -4 -12 -3 -12 1 0 5 -39 7 -87 5 -136 -5
-153 -7 -153 -12 0 -3 -27 -12 -61 -19 -34 -8 -66 -19 -72 -26 -6 -7 -19 -10
-29 -7 -10 2 -18 -1 -18 -8 0 -7 -7 -10 -15 -6 -8 3 -15 1 -15 -5 0 -6 -4 -7
-10 -4 -5 3 -10 1 -10 -5 0 -6 -4 -9 -9 -5 -5 3 -12 1 -16 -5 -4 -6 -10 -8
-15 -5 -4 3 -10 -2 -14 -10 -3 -8 -1 -17 5 -21 6 -4 6 -11 -2 -20 -6 -7 -15
-11 -20 -8 -5 3 -9 1 -9 -4 0 -6 -15 -8 -32 -6 -53 7 -81 5 -88 -7 -4 -6 -13
-11 -21 -13 -8 -1 -50 -19 -93 -39 -43 -20 -83 -37 -87 -37 -5 0 -9 -4 -9 -10
0 -5 -6 -10 -13 -10 -39 0 -173 -90 -169 -113 2 -10 -4 -17 -13 -17 -8 0 -15
-4 -15 -8 0 -7 -48 -29 -61 -28 -4 1 -16 -8 -28 -18 -12 -11 -21 -15 -21 -10
0 5 -4 4 -8 -1 -4 -6 -34 -30 -67 -54 -33 -25 -62 -48 -63 -53 -2 -4 -10 -8
-17 -8 -8 0 -18 -6 -22 -13 -4 -7 -23 -24 -42 -37 -18 -13 -46 -35 -61 -49
-14 -14 -42 -38 -61 -54 -42 -34 -268 -256 -303 -298 -14 -17 -26 -28 -26 -24
0 3 -15 -11 -33 -32 -17 -21 -57 -64 -88 -95 -31 -32 -55 -58 -54 -58 2 0 -21
-25 -51 -55 -30 -31 -54 -58 -54 -61 0 -2 -12 -17 -28 -33 -15 -15 -52 -56
-82 -91 -30 -34 -64 -73 -75 -85 -18 -21 -89 -103 -125 -145 -8 -10 -31 -37
-50 -60 -19 -24 -45 -54 -58 -67 -13 -12 -21 -23 -18 -23 2 0 -12 -18 -32 -39
-20 -21 -46 -51 -56 -65 -11 -15 -30 -38 -43 -52 -12 -14 -23 -30 -23 -35 0
-6 -4 -7 -10 -4 -5 3 -10 1 -10 -4 0 -6 -9 -20 -20 -31 -11 -11 -18 -20 -15
-20 2 0 -6 -10 -18 -23 -12 -13 -38 -43 -57 -68 -19 -24 -45 -54 -57 -67 -13
-13 -23 -25 -23 -27 0 -5 -26 -38 -50 -63 -8 -9 -28 -32 -43 -51 -58 -74 -83
-104 -104 -129 -13 -14 -23 -28 -23 -31 0 -3 -15 -22 -33 -42 -17 -20 -45 -54
-62 -74 -16 -21 -36 -44 -43 -52 -7 -7 -11 -13 -8 -13 3 0 -2 -8 -12 -18 -9
-10 -26 -31 -37 -46 -11 -16 -27 -36 -35 -45 -8 -9 -26 -32 -40 -51 -13 -19
-27 -37 -30 -40 -11 -9 -194 -253 -214 -285 -10 -16 -22 -32 -25 -35 -4 -3
-32 -39 -62 -80 -30 -41 -107 -145 -170 -230 -63 -85 -126 -171 -139 -190 -13
-19 -31 -40 -40 -47 -8 -7 -11 -13 -7 -13 5 0 -12 -26 -37 -58 -25 -32 -46
-64 -46 -71 0 -7 -4 -9 -10 -6 -5 3 -10 0 -10 -9 0 -8 -3 -16 -7 -18 -5 -1
-35 -43 -68 -93 -33 -49 -63 -92 -67 -93 -5 -2 -6 -8 -2 -13 3 -5 1 -9 -5 -9
-6 0 -18 -15 -27 -32 -9 -18 -23 -40 -31 -48 -8 -8 -28 -39 -46 -68 -75 -123
-122 -197 -127 -202 -10 -9 -31 -45 -36 -62 -4 -10 -10 -18 -13 -18 -4 0 -18
-22 -31 -50 -13 -27 -27 -50 -31 -50 -6 0 -17 -29 -17 -46 -1 -3 -7 -11 -15
-17 -8 -7 -31 -43 -52 -82 -21 -38 -45 -81 -55 -95 -9 -14 -54 -99 -100 -190
-45 -91 -86 -170 -91 -176 -5 -6 -6 -14 -2 -17 3 -4 1 -7 -6 -7 -7 0 -10 -4
-6 -9 3 -5 0 -13 -6 -16 -5 -4 -8 -13 -5 -21 3 -8 2 -14 -2 -14 -5 0 -14 -16
-21 -36 -7 -20 -23 -57 -34 -83 -12 -25 -21 -48 -22 -51 0 -3 -4 -11 -8 -17
-5 -7 -6 -13 -2 -13 3 0 -1 -14 -10 -30 -9 -16 -13 -30 -9 -30 4 0 2 -6 -3
-12 -5 -7 -24 -60 -42 -118 -18 -58 -35 -112 -38 -120 -3 -8 -7 -24 -8 -35 -4
-25 -13 -60 -16 -60 -1 0 -3 -9 -5 -20 -1 -11 -7 -47 -13 -80 -5 -33 -12 -78
-15 -100 -3 -22 -8 -60 -12 -85 -3 -25 -7 -83 -8 -130 -1 -47 -4 -90 -8 -96
-4 -6 -4 -14 -1 -18 10 -10 11 -46 1 -46 -5 0 -6 -5 -2 -11 3 -6 8 -25 9 -42
2 -18 6 -52 10 -77 3 -25 8 -63 10 -85 2 -22 11 -69 20 -105 9 -36 18 -78 21
-95 3 -16 9 -34 14 -39 5 -5 6 -15 3 -22 -3 -8 0 -14 7 -14 6 0 8 -4 5 -10 -3
-5 -1 -10 4 -10 6 0 11 -6 11 -13 0 -35 84 -147 110 -147 5 0 10 -8 10 -17 0
-9 3 -14 6 -10 6 5 23 -6 72 -51 14 -12 39 -33 55 -45 16 -12 44 -35 61 -52
18 -16 37 -31 42 -33 5 -2 22 -13 38 -25 16 -12 33 -21 38 -20 4 2 8 -2 8 -8
0 -5 5 -7 10 -4 6 3 10 2 10 -2 0 -15 111 -34 198 -35 45 0 82 -3 82 -7 0 -7
75 -11 240 -11 161 0 210 3 210 12 0 5 3 7 7 6 16 -4 169 13 208 24 58 15 78
19 93 20 6 1 12 4 12 8 0 3 8 6 18 7 42 3 62 8 62 14 0 4 8 6 18 4 9 -1 22 0
27 4 6 3 15 6 20 8 6 1 37 9 70 18 93 26 165 43 165 38 0 -2 8 1 18 6 11 6 30
12 43 15 13 3 38 9 56 15 17 5 34 7 37 3 3 -3 6 0 6 6 0 7 3 11 8 10 13 -4
152 44 152 53 0 5 7 6 15 3 8 -4 15 -1 15 5 0 6 3 10 8 9 11 -3 82 25 82 32 0
4 6 7 13 7 20 2 81 27 89 38 4 6 8 7 8 2 0 -4 17 1 39 12 21 11 41 17 45 14 3
-4 6 -1 6 5 0 7 3 11 7 10 11 -2 68 21 154 61 25 11 49 21 52 21 4 0 36 14 72
30 36 17 70 30 76 30 5 0 21 7 34 16 14 9 25 12 25 8 0 -5 7 0 15 10 8 11 15
17 15 13 0 -4 26 7 57 24 32 17 76 41 98 53 22 11 43 26 47 31 4 6 8 6 8 2 0
-5 13 1 29 12 16 12 36 21 44 21 9 0 17 4 19 9 2 5 21 17 43 28 91 45 221 116
236 129 9 8 19 11 22 7 4 -3 7 -2 7 4 0 5 22 22 50 37 28 15 50 32 50 37 0 6
4 8 9 5 4 -3 21 5 37 19 15 13 31 22 35 19 4 -2 9 -1 11 3 5 12 133 93 146 93
7 0 12 5 12 11 0 5 13 15 30 20 17 6 30 14 30 19 0 4 14 13 30 20 17 7 30 17
30 23 0 6 3 8 6 4 3 -3 11 -1 18 4 30 27 84 52 116 55 19 1 45 5 58 8 12 3 31
8 41 10 10 3 34 13 53 22 18 10 35 19 38 19 29 8 111 55 147 85 7 5 16 10 20
10 4 0 46 25 92 55 46 30 87 55 91 55 4 0 15 9 25 20 10 11 24 20 32 20 7 0
13 4 13 9 0 5 10 13 23 17 12 4 24 10 27 13 3 3 41 31 85 61 44 29 82 56 85
59 7 8 41 30 60 38 8 4 17 9 20 12 10 12 75 58 83 59 4 1 22 15 40 32 17 16
40 33 50 36 9 3 17 9 17 14 0 5 8 11 18 14 10 4 27 14 38 24 10 10 41 33 69
52 57 40 62 44 91 68 97 78 124 93 124 71 0 -90 199 -336 286 -352 11 -2 26
-7 34 -10 72 -27 184 -32 289 -12 76 15 92 12 114 -22 4 -7 15 -13 22 -13 8 0
15 -4 15 -10 0 -5 16 -24 37 -42 20 -18 50 -45 67 -61 l31 -28 0 -112 c1 -95
4 -119 22 -154 12 -22 19 -44 16 -47 -3 -3 2 -8 11 -12 9 -3 16 -13 16 -20 0
-21 89 -104 154 -143 47 -28 66 -34 118 -34 69 -1 93 4 140 28 17 8 39 15 49
15 10 0 21 5 24 10 4 6 27 22 53 35 67 36 116 66 122 74 3 4 20 16 38 26 17
11 32 23 32 28 0 4 4 6 9 2 6 -3 15 4 21 15 6 11 17 20 25 20 8 0 15 5 15 10
0 6 5 10 10 10 6 0 19 8 29 17 11 10 33 29 50 43 59 48 169 142 221 190 15 14
69 63 120 110 51 47 104 96 118 109 l24 24 41 -23 c23 -13 44 -26 47 -29 3 -3
21 -15 40 -25 19 -11 41 -26 48 -33 7 -7 20 -13 28 -13 8 0 14 -4 14 -10 0 -5
4 -10 9 -10 10 0 111 -60 121 -71 3 -3 32 -21 65 -39 33 -19 62 -37 63 -42 2
-4 8 -6 13 -2 5 3 12 -2 15 -10 3 -9 10 -13 15 -10 5 3 9 1 9 -4 0 -5 8 -12
18 -16 17 -5 23 -9 99 -59 23 -15 46 -27 52 -27 6 0 11 -5 11 -11 0 -5 5 -7
10 -4 6 3 10 2 10 -2 0 -5 17 -17 38 -28 20 -11 83 -48 140 -82 56 -35 107
-63 112 -63 6 0 10 -5 10 -11 0 -5 5 -7 10 -4 6 3 10 1 10 -4 0 -6 4 -11 10
-11 5 0 39 -18 75 -40 36 -22 70 -40 75 -40 6 0 10 -5 10 -11 0 -5 5 -7 10 -4
6 3 10 2 10 -2 0 -5 8 -13 19 -18 10 -6 40 -22 67 -36 27 -15 64 -34 81 -43
18 -10 35 -22 38 -27 4 -5 11 -7 16 -4 5 4 9 3 9 -2 0 -4 31 -24 68 -43 37
-19 69 -37 72 -40 5 -5 70 -41 145 -79 16 -9 32 -19 35 -22 3 -3 32 -19 65
-36 33 -17 80 -42 105 -56 25 -15 71 -38 102 -53 32 -15 58 -30 58 -33 0 -4
10 -7 22 -8 11 -1 24 -6 27 -10 3 -5 35 -22 71 -39 105 -49 125 -58 133 -56 4
1 7 -3 7 -9 0 -5 5 -7 11 -4 5 4 19 -1 30 -11 10 -9 19 -14 19 -10 0 3 17 -2
38 -13 20 -10 78 -31 127 -46 50 -15 97 -30 105 -33 8 -3 20 -7 25 -8 6 -1 13
-3 18 -4 4 -1 10 -3 15 -4 20 -5 69 -17 87 -21 11 -2 38 -9 60 -15 22 -5 60
-12 85 -16 25 -3 48 -8 52 -10 3 -2 28 -7 55 -10 83 -11 88 -11 88 -14 0 -1
18 -3 40 -5 85 -7 161 -15 185 -19 14 -2 59 -7 100 -11 41 -3 95 -8 120 -10
25 -2 77 -7 115 -10 71 -6 144 -12 225 -20 45 -5 161 -13 275 -20 33 -2 60 -4
60 -5 0 -2 119 -9 212 -13 35 -1 63 -6 63 -10 0 -4 9 -3 20 3 11 6 20 7 20 2
0 -5 24 -10 53 -10 28 0 113 -3 187 -7 388 -21 712 -17 915 12 17 2 45 5 63 6
17 1 32 4 32 7 0 3 20 5 46 5 25 -1 47 2 49 5 3 4 20 6 40 5 19 -1 35 1 35 5
0 3 10 7 23 7 12 1 38 4 57 8 46 8 73 13 145 25 33 6 77 14 98 19 20 5 37 7
37 4 0 -3 6 -1 13 4 11 9 30 12 80 16 9 1 17 4 17 8 0 3 8 6 18 6 9 -1 42 4
72 11 30 7 73 15 95 17 22 3 47 8 57 11 16 5 144 -31 164 -47 6 -5 14 -6 17
-2 4 3 7 2 7 -4 0 -5 6 -10 14 -10 12 0 76 -22 206 -70 8 -3 22 -7 30 -8 8 -2
26 -6 40 -10 14 -3 30 -7 35 -8 6 -2 15 -5 20 -9 6 -3 26 -9 45 -12 33 -7 57
-14 105 -31 11 -4 30 -9 42 -11 13 -1 33 -6 45 -10 13 -5 26 -9 31 -10 4 -1 8
-2 10 -4 1 -1 9 -3 17 -5 8 -2 42 -11 75 -20 33 -9 87 -23 120 -31 33 -8 82
-21 109 -29 26 -8 52 -13 56 -10 5 3 11 1 15 -4 3 -6 12 -8 20 -4 8 3 15 1 15
-5 0 -5 11 -8 25 -7 14 2 25 -1 25 -5 0 -5 8 -9 18 -8 21 0 215 -45 222 -52 3
-3 16 -6 30 -8 45 -5 55 -7 68 -15 6 -5 12 -6 12 -3 0 2 15 0 33 -5 64 -20
322 -81 340 -81 9 1 17 -3 17 -8 0 -5 9 -7 20 -5 11 2 20 0 20 -5 0 -5 6 -7
14 -4 8 3 23 1 34 -5 11 -6 37 -12 56 -13 20 -2 36 -6 36 -9 0 -4 15 -9 33
-12 17 -3 43 -7 57 -11 40 -9 114 -28 130 -33 8 -2 16 -4 17 -4 2 0 21 -6 43
-14 22 -8 44 -14 48 -15 4 0 21 -4 37 -9 17 -5 66 -19 110 -31 44 -12 87 -24
95 -27 8 -4 18 -5 23 -5 4 1 7 -3 7 -9 0 -5 5 -7 10 -4 6 3 16 3 23 -2 6 -4
21 -8 32 -10 11 -1 53 -14 94 -28 40 -14 80 -25 87 -25 8 0 14 -4 14 -10 0 -5
7 -7 16 -3 9 3 19 1 23 -5 3 -6 22 -14 40 -17 18 -3 46 -12 62 -21 16 -8 30
-14 31 -13 4 3 76 -20 103 -31 11 -5 38 -14 60 -20 22 -6 50 -16 63 -21 12 -5
32 -13 45 -18 12 -5 60 -22 107 -37 47 -16 86 -31 88 -35 2 -5 9 -6 17 -3 7 3
16 0 20 -5 3 -6 11 -9 16 -6 5 4 9 2 9 -3 0 -5 6 -9 13 -10 31 -2 180 -54 185
-64 2 -4 10 -4 18 -1 8 3 14 0 14 -7 0 -6 5 -8 10 -5 6 4 17 1 25 -5 8 -7 15
-9 15 -5 0 4 7 2 15 -5 8 -7 15 -10 15 -6 0 4 13 0 30 -9 16 -8 31 -15 32 -15
9 3 173 -55 176 -63 2 -4 7 -5 12 -2 4 3 28 -4 53 -14 25 -11 48 -17 52 -13 3
4 9 2 13 -4 4 -5 34 -18 67 -28 33 -10 71 -23 85 -29 14 -5 34 -12 44 -14 11
-2 25 -8 31 -13 7 -6 24 -11 39 -12 14 -1 26 -7 26 -12 0 -5 3 -7 6 -3 3 3 29
-3 58 -15 28 -11 56 -21 61 -22 6 -1 20 -7 31 -14 12 -6 24 -9 26 -7 3 3 20
-1 39 -9 19 -8 37 -13 40 -13 3 1 13 -4 22 -12 10 -7 17 -11 17 -7 0 4 13 0
30 -9 16 -8 35 -15 43 -15 8 0 32 -8 53 -17 22 -9 41 -17 44 -18 17 -3 89 -28
110 -38 39 -18 50 -28 43 -41 -4 -6 -8 -20 -10 -31 -1 -11 -6 -38 -12 -60 -5
-22 -12 -53 -15 -70 -8 -46 -26 -118 -33 -135 -3 -8 -7 -18 -8 -22 -2 -5 -3
-9 -4 -10 -2 -2 -4 -13 -6 -24 -3 -12 -10 -34 -16 -50 -7 -16 -13 -33 -14 -39
-2 -5 -8 -30 -15 -55 -18 -66 -20 -87 -20 -170 0 -172 35 -256 131 -321 123
-83 184 -119 205 -119 8 0 14 -5 14 -12 0 -6 3 -9 6 -5 3 3 37 -8 76 -25 39
-16 79 -30 89 -31 10 -1 19 -6 19 -11 0 -5 3 -7 6 -4 3 4 21 0 40 -8 19 -8 34
-11 34 -7 0 4 5 2 12 -5 7 -7 20 -12 30 -12 10 0 48 -19 85 -42 38 -22 74 -41
81 -41 6 0 12 -4 12 -8 0 -4 17 -13 38 -20 20 -6 42 -14 47 -18 6 -3 17 -7 26
-8 9 -1 29 -8 45 -14 16 -7 40 -13 54 -14 14 -1 25 -3 25 -4 0 -5 41 -11 95
-16 30 -3 63 -8 73 -11 15 -5 17 -3 11 7 -6 11 -5 12 7 2 15 -12 82 -15 75 -4
-2 3 20 7 50 8 30 1 52 -2 49 -7 -3 -5 -1 -11 5 -15 6 -4 8 -11 5 -16 -4 -5
-1 -9 4 -9 6 0 11 -5 11 -10 0 -6 7 -27 16 -48 10 -20 18 -43 20 -51 1 -8 8
-17 14 -21 7 -4 11 -10 10 -14 -2 -8 21 -69 29 -76 10 -9 42 -64 48 -82 3 -10
9 -18 14 -18 5 0 9 -6 9 -14 0 -8 3 -16 8 -18 4 -1 26 -35 50 -74 23 -38 51
-80 62 -92 11 -12 20 -24 20 -28 0 -4 7 -14 15 -23 9 -9 45 -54 80 -101 102
-134 107 -140 166 -199 69 -69 212 -201 218 -201 2 0 13 -10 25 -22 54 -57
119 -107 146 -113 17 -4 28 -11 24 -16 -3 -5 0 -9 7 -9 7 0 9 -3 6 -6 -11 -11
73 -152 96 -162 4 -2 7 -10 7 -17 0 -7 3 -15 8 -17 4 -1 25 -29 46 -61 80
-117 197 -221 288 -258 17 -7 34 -26 45 -50 9 -21 20 -39 25 -39 4 0 7 -4 5
-8 -3 -13 84 -98 126 -121 21 -12 49 -22 63 -23 13 -1 24 -5 24 -8 0 -8 62 -6
76 2 6 4 20 -1 30 -10 27 -25 132 -96 174 -117 19 -9 61 -35 92 -56 32 -21 63
-40 70 -41 7 -2 15 -5 18 -8 13 -14 138 -90 164 -100 24 -9 64 -8 143 5 12 2
30 8 40 13 10 5 29 9 43 8 14 -1 31 2 37 7 7 5 20 7 28 3 8 -3 15 -2 15 3 0 5
11 12 24 15 13 3 35 15 48 26 62 53 73 61 76 52 2 -6 29 4 60 21 31 18 74 41
95 52 20 11 37 23 37 28 0 4 5 5 10 2 6 -3 10 -1 10 6 0 7 3 10 6 6 6 -6 29
11 86 63 20 19 57 52 82 73 79 67 178 170 251 261 17 21 42 52 57 69 15 18 28
37 28 42 0 6 12 24 28 40 15 17 47 61 72 100 25 38 51 77 58 85 7 8 13 20 14
25 1 6 10 18 19 29 10 10 24 32 32 48 8 16 18 29 23 29 5 -1 9 2 9 7 0 13 157
252 166 252 4 0 6 6 4 13 -3 6 6 24 20 39 14 15 25 31 25 35 0 5 16 32 35 60
19 29 35 55 35 58 0 3 23 39 50 81 28 41 50 78 50 81 0 2 15 28 34 56 46 71
86 138 93 160 3 9 8 17 12 17 3 0 18 21 31 48 14 26 27 49 30 52 6 6 24 35 49
82 11 21 33 57 48 80 15 24 26 46 25 50 -1 3 5 12 13 18 8 7 15 19 15 26 0 8
3 14 8 14 4 0 18 23 32 51 13 27 34 60 45 72 11 12 19 23 18 24 -7 7 -2 23 11
35 7 8 23 33 35 55 11 23 25 45 31 48 6 4 8 10 5 15 -3 4 2 13 10 20 8 7 12
16 9 21 -3 5 -1 9 3 9 5 0 22 27 38 60 17 33 34 60 38 60 5 0 5 5 2 10 -3 6 1
13 9 16 9 3 14 10 11 14 -3 4 2 13 10 20 8 7 15 19 15 27 0 7 5 19 10 26 18
20 200 361 200 374 0 6 3 13 8 15 7 3 42 73 41 83 0 3 9 17 20 32 12 14 18 29
15 34 -3 5 0 9 6 9 6 0 9 4 6 9 -3 5 1 14 9 21 8 7 15 21 15 31 0 11 4 19 9
19 5 0 12 12 15 26 4 15 14 33 22 41 8 8 12 19 9 24 -4 5 -1 9 5 9 6 0 9 4 6
9 -4 5 -3 11 1 13 12 5 43 68 43 87 0 9 13 38 29 63 16 25 27 49 24 52 -4 3
-2 6 3 6 6 0 18 27 28 60 10 33 22 60 28 60 5 0 6 5 3 10 -4 6 -2 16 3 23 6 7
11 17 12 22 1 6 7 21 12 35 14 36 37 99 55 150 9 25 21 48 27 52 6 4 8 8 3 8
-4 0 -1 14 8 30 9 17 13 30 11 30 -3 0 3 20 14 44 11 28 15 47 9 53 -11 11 5
63 20 63 5 0 12 19 16 43 4 23 9 51 11 62 2 11 7 34 9 50 3 17 8 37 10 45 2 8
6 31 9 50 6 36 13 73 21 113 2 12 7 36 10 52 3 17 8 41 11 55 6 24 9 43 19
125 8 58 24 156 31 185 6 26 6 465 0 535 -2 22 -6 47 -9 55 -3 8 -8 47 -12 85
-13 154 -21 220 -25 220 -1 0 -3 15 -6 34 -2 19 -7 46 -10 60 -3 14 -6 36 -7
49 -1 12 -4 22 -8 22 -3 0 -5 10 -5 22 1 13 -2 28 -6 34 -5 7 -8 16 -7 20 1 5
0 12 -1 17 -5 14 -7 22 -14 62 -10 51 -29 108 -38 115 -4 3 -9 17 -11 30 -3
14 -10 37 -16 53 -6 15 -6 27 -1 27 8 0 -15 93 -38 150 -5 14 -10 28 -10 33
-1 24 -16 74 -24 85 -6 6 -7 12 -3 12 4 0 3 6 -3 13 -6 6 -10 14 -10 17 0 26
-16 80 -25 80 -6 0 -8 3 -5 6 12 11 -61 198 -87 221 -14 13 -23 28 -20 34 4 5
1 9 -4 9 -6 0 -11 9 -11 20 0 11 5 20 11 20 7 0 8 7 4 18 -4 9 -8 27 -8 40 -1
12 -4 22 -7 22 -4 0 -15 27 -26 60 -10 33 -21 60 -24 60 -3 0 -6 10 -7 22 -1
11 -8 25 -15 29 -7 5 -9 9 -4 9 5 0 3 7 -4 15 -7 8 -9 15 -4 15 5 0 4 4 -1 8
-6 4 -21 32 -35 62 -22 50 -92 130 -113 130 -4 0 -6 4 -2 10 3 5 12 7 20 3 17
-6 21 22 5 32 -5 3 -10 13 -10 22 0 8 -9 28 -21 44 -11 16 -17 29 -12 29 4 0
-1 7 -11 15 -11 8 -16 15 -12 15 4 0 -2 13 -13 29 -11 15 -18 31 -14 35 3 3 1
6 -5 6 -7 0 -12 5 -12 11 0 9 -57 95 -94 143 -9 11 -29 19 -48 20 -25 1 -43
11 -73 43 -43 44 -48 46 -195 59 -233 20 -310 14 -351 -26 -16 -15 -26 -29
-23 -33 5 -5 -47 -21 -72 -22 -18 -1 -94 -39 -94 -47 0 -5 -4 -8 -9 -8 -11 0
-135 -82 -139 -92 -2 -4 -10 -8 -18 -8 -9 0 -12 -4 -9 -10 3 -5 1 -10 -4 -10
-6 0 -19 -8 -30 -17 -10 -10 -40 -36 -65 -58 -80 -68 -120 -110 -141 -148 -11
-20 -23 -37 -27 -37 -5 0 -8 -7 -8 -15 0 -8 -5 -15 -11 -15 -5 0 -7 -4 -4 -10
3 -5 3 -10 -2 -10 -4 0 -24 -27 -43 -60 -19 -33 -38 -60 -42 -60 -5 0 -8 -7
-8 -15 0 -8 -5 -15 -11 -15 -5 0 -7 -5 -4 -10 3 -6 -1 -13 -9 -16 -8 -3 -18
-15 -22 -27 -4 -12 -12 -27 -18 -34 -28 -31 -36 -43 -32 -43 3 0 -5 -19 -18
-42 -18 -34 -205 -396 -273 -529 -7 -15 -20 -32 -28 -39 -8 -7 -12 -16 -9 -21
3 -5 1 -9 -4 -9 -6 0 -20 -19 -32 -42 -12 -24 -29 -49 -38 -55 -9 -7 -13 -13
-9 -13 12 0 -197 -318 -228 -345 -6 -5 -28 -36 -49 -68 -21 -31 -43 -57 -49
-57 -6 0 -8 -3 -4 -6 5 -6 -57 -93 -75 -105 -5 -3 -9 -10 -9 -15 0 -5 -19 -9
-43 -9 -24 0 -50 -6 -58 -13 -8 -6 -18 -9 -21 -5 -4 3 -7 1 -7 -5 0 -7 -5 -12
-11 -12 -10 0 -77 -49 -115 -85 -6 -5 -33 -28 -60 -50 -27 -22 -61 -52 -76
-67 -15 -16 -30 -28 -33 -28 -4 0 -12 -6 -19 -13 -14 -12 -114 -101 -152 -134
-22 -19 -130 -115 -199 -177 -22 -19 -44 -36 -48 -36 -5 0 -5 -4 -2 -10 3 -5
3 -10 -2 -10 -11 0 -253 -225 -253 -234 0 -2 -33 -36 -72 -78 -40 -41 -88 -92
-106 -112 -33 -38 -50 -39 -56 -5 -5 31 -18 59 -27 59 -5 0 -9 7 -9 15 0 18
-43 89 -73 123 -11 12 -17 22 -12 22 4 0 -10 14 -31 31 -22 16 -50 39 -64 50
-13 10 -29 19 -35 19 -5 0 -22 6 -37 14 -37 20 -152 11 -200 -15 -10 -5 -23
-7 -28 -4 -6 3 -10 1 -10 -6 0 -7 -3 -10 -6 -6 -3 3 -28 -3 -55 -14 -28 -10
-59 -19 -70 -19 -27 0 -97 33 -131 62 -60 52 -92 73 -105 70 -14 -3 -67 33
-61 41 2 3 -4 13 -13 23 -9 11 -26 46 -38 79 -28 77 -101 205 -117 205 -6 0
-14 6 -17 14 -3 7 -26 23 -51 36 -25 12 -48 26 -51 30 -3 5 -12 7 -20 3 -8 -3
-15 0 -15 7 0 7 -7 10 -15 6 -8 -3 -15 -1 -15 5 0 6 -4 8 -9 4 -5 -3 -12 -1
-16 4 -7 12 -45 10 -45 -2 0 -4 -7 -4 -16 1 -20 11 -54 4 -54 -11 0 -6 -3 -8
-6 -4 -4 3 -28 -5 -55 -18 -27 -14 -53 -25 -59 -25 -6 0 -29 -18 -50 -39 -22
-22 -40 -37 -40 -35 0 3 -7 -1 -15 -8 -32 -29 -50 -44 -79 -65 -16 -13 -27
-23 -24 -23 3 0 -19 -25 -49 -55 -30 -30 -51 -55 -47 -55 4 0 -2 -8 -12 -18
-10 -9 -35 -37 -54 -62 -19 -25 -38 -46 -42 -48 -4 -2 -8 -12 -8 -22 0 -10 -4
-20 -8 -22 -11 -4 -71 -107 -101 -173 -12 -27 -31 -68 -41 -90 -18 -39 -31
-75 -31 -85 -1 -3 -4 -9 -9 -15 -4 -5 -13 -27 -19 -47 -13 -40 -28 -47 -50
-25 -11 9 -12 9 -7 0 5 -9 2 -11 -8 -7 -9 3 -16 10 -16 14 0 5 -8 7 -17 5 -10
-1 -22 1 -28 5 -9 7 -96 33 -102 31 -2 0 -23 8 -48 19 -25 11 -45 17 -45 13 0
-3 -6 0 -13 6 -8 6 -17 8 -20 4 -4 -3 -13 0 -22 7 -8 7 -15 9 -15 5 0 -4 -6
-3 -13 3 -7 6 -24 13 -37 16 -45 9 -215 60 -220 65 -5 6 -14 7 -62 13 -10 1
-18 6 -18 10 0 4 -11 8 -25 8 -14 0 -33 4 -43 9 -9 5 -57 22 -107 37 -91 28
-101 31 -132 38 -10 3 -19 5 -20 6 -2 2 -7 4 -13 5 -5 1 -11 3 -12 5 -2 1 -10
3 -18 5 -37 8 -197 58 -212 66 -10 5 -27 9 -38 9 -11 0 -20 4 -20 8 0 4 -8 9
-17 10 -32 3 -48 7 -60 15 -7 5 -13 5 -13 1 0 -3 -6 -2 -12 4 -7 5 -29 13 -48
17 -19 4 -39 11 -45 15 -5 5 -12 8 -15 8 -12 -2 -110 26 -110 32 0 3 -8 7 -17
8 -30 3 -47 7 -58 13 -8 5 -56 20 -75 23 -7 2 -182 58 -200 64 -8 3 -19 6 -25
7 -5 0 -16 4 -22 8 -7 5 -17 6 -22 3 -5 -4 -11 -2 -13 3 -1 6 -14 12 -28 15
-44 9 -175 50 -180 56 -3 3 -18 7 -34 8 -16 1 -35 7 -42 13 -8 6 -14 8 -14 4
0 -4 -6 -2 -13 4 -8 6 -17 8 -20 4 -4 -3 -12 -1 -19 4 -12 9 -89 33 -113 35
-5 0 -34 9 -62 19 -29 10 -53 15 -53 11 0 -3 -5 -1 -11 5 -6 6 -18 9 -25 6 -8
-3 -14 0 -14 5 0 6 -8 10 -17 10 -10 -1 -67 13 -128 29 -60 17 -123 35 -140
39 -16 4 -37 9 -45 11 -8 2 -27 5 -42 5 -16 1 -28 5 -28 9 0 4 -8 6 -17 4 -10
-1 -22 0 -28 4 -5 3 -18 6 -27 7 -10 1 -19 3 -20 4 -2 1 -12 4 -23 6 -11 1
-72 12 -135 23 -63 11 -133 22 -155 25 -23 4 -52 9 -65 12 -26 5 -80 14 -115
17 -11 2 -25 5 -30 9 -6 3 -27 5 -48 4 -20 -1 -37 1 -37 5 0 3 -18 6 -41 7
-61 3 -64 11 -17 44 24 17 46 36 50 42 5 7 8 7 8 1 0 -6 3 -6 8 0 4 6 34 32
67 57 33 26 90 75 126 110 36 34 88 84 116 109 52 49 266 310 323 394 19 28
37 51 42 53 4 2 8 9 8 15 0 7 11 25 25 40 14 15 23 27 20 27 -4 0 6 17 23 38
16 20 44 66 63 102 18 36 37 68 42 71 5 3 9 9 8 12 0 4 24 57 53 119 53 112
82 186 78 201 -1 4 2 7 7 7 5 0 14 23 21 50 7 28 16 50 20 50 5 0 9 8 8 18 0
23 8 56 20 79 11 21 38 130 47 187 3 21 7 42 10 46 3 5 6 27 7 50 1 22 4 42 7
44 8 5 5 251 -3 301 -22 128 -30 165 -38 165 -4 0 -5 7 -2 15 3 8 2 20 -2 27
-5 7 -10 22 -11 32 -2 11 -8 25 -14 33 -6 7 -9 13 -5 13 4 0 0 13 -9 30 -8 16
-16 33 -16 37 -2 13 -15 43 -50 118 -18 39 -32 73 -31 78 1 4 -3 7 -10 7 -6 0
-8 3 -5 6 4 4 -2 19 -13 34 -11 16 -20 31 -20 34 0 6 -23 36 -47 61 -7 8 -13
16 -13 19 0 6 -127 132 -205 204 -34 32 -42 54 -13 36 7 -5 18 -9 23 -10 6 -1
30 -7 55 -14 52 -13 75 -18 110 -24 14 -3 79 -17 145 -31 66 -15 134 -29 150
-32 17 -2 41 -6 55 -9 14 -3 43 -7 65 -9 22 -2 51 -7 64 -9 32 -7 116 -18 166
-21 22 -2 40 -4 40 -5 0 -1 14 -3 30 -5 17 -1 55 -5 85 -8 30 -4 84 -9 120
-12 36 -3 92 -8 125 -11 72 -8 469 -8 505 -1 14 2 53 8 87 12 35 4 61 10 59
14 -2 3 12 6 32 7 35 1 49 3 112 19 14 4 34 8 45 10 27 5 54 12 93 24 18 5 33
9 35 9 9 -3 153 48 159 56 4 6 8 8 8 3 0 -4 13 -1 29 7 16 9 31 12 35 9 3 -4
6 -1 6 5 0 7 7 12 15 12 9 0 65 24 125 54 60 30 112 51 116 48 4 -4 4 -2 1 4
-4 6 10 19 33 30 22 10 40 22 40 27 0 4 7 7 15 7 8 0 15 5 15 11 0 5 4 8 9 5
5 -4 11 -3 13 2 1 4 39 36 83 69 97 75 195 166 195 181 0 22 21 23 39 3 10
-12 23 -21 28 -21 5 0 19 -9 31 -20 12 -12 22 -18 22 -15 0 4 15 -2 33 -13 65
-40 187 -101 187 -94 0 4 4 2 8 -4 8 -11 142 -77 182 -89 14 -4 30 -12 36 -17
7 -5 20 -11 30 -13 11 -2 44 -12 74 -20 30 -9 63 -17 72 -17 10 1 20 -3 22 -7
3 -4 21 -6 40 -6 20 1 36 -1 36 -4 0 -4 32 -6 71 -6 38 1 72 -2 75 -7 3 -5 11
-5 17 -1 7 4 30 9 52 9 22 1 40 3 40 4 0 1 7 3 15 5 73 16 114 27 190 50 30
10 58 22 61 27 3 5 10 10 15 10 21 1 51 18 77 43 15 15 27 24 27 19 0 -5 7 2
16 14 14 21 22 43 29 87 2 11 4 20 5 20 1 0 3 10 6 22 5 28 -21 89 -43 102
-10 6 -13 11 -8 11 6 0 -17 14 -50 29 -33 16 -63 27 -67 24 -5 -2 -8 0 -8 5 0
5 -6 9 -12 10 -40 4 -75 10 -88 16 -8 3 -26 8 -40 10 -14 3 -25 5 -25 6 0 2
-30 5 -125 15 -100 10 -162 11 -167 2 -3 -4 -11 -3 -19 4 -10 8 -18 9 -27 0
-8 -6 -16 -8 -20 -5 -3 3 -63 7 -134 9 -110 3 -357 34 -403 52 -18 7 -66 13
-97 13 -13 0 -23 4 -23 8 0 10 -100 9 -116 -1 -6 -3 -22 6 -36 21 -35 38 -76
72 -88 72 -6 0 -10 5 -10 10 0 6 -7 10 -15 10 -8 0 -15 5 -15 11 0 5 -4 7 -10
4 -5 -3 -10 -1 -10 4 0 6 -4 11 -9 11 -5 0 -38 13 -73 29 -70 32 -109 46 -120
43 -5 -1 -8 2 -8 8 0 5 -7 10 -15 10 -23 0 -19 9 25 56 22 24 40 41 40 37 0
-3 12 12 26 33 15 21 30 41 33 44 4 3 19 22 35 42 l27 37 42 -15 c23 -8 49
-17 57 -21 8 -3 22 -5 32 -4 9 1 19 -3 23 -9 3 -6 11 -8 16 -4 5 3 15 1 22 -4
7 -5 19 -10 27 -10 8 -1 33 -3 55 -5 22 -1 45 -6 51 -9 6 -4 14 -5 17 -1 4 3
25 7 48 9 23 2 46 7 53 12 6 6 27 13 46 17 19 4 50 17 70 29 19 12 52 30 73
41 21 11 47 28 57 38 11 9 22 17 25 17 9 0 105 102 105 111 0 5 6 9 13 9 6 0
24 20 39 43 50 77 81 122 95 135 7 7 13 20 13 28 0 8 5 14 10 14 6 0 10 7 10
15 0 8 3 15 8 15 4 0 16 19 27 43 11 23 22 44 25 47 7 6 63 122 64 132 1 4 7
13 14 20 6 6 12 18 12 25 0 7 4 21 9 31 5 9 14 31 21 47 6 17 18 43 26 58 8
16 12 33 8 38 -3 5 0 9 6 9 6 0 8 5 5 10 -3 6 -1 10 6 10 7 0 9 3 6 7 -4 3 -1
16 6 27 7 12 24 50 37 86 13 36 28 68 33 71 5 4 7 11 3 17 -3 6 -2 13 4 17 6
4 8 11 5 16 -4 5 -1 9 5 9 7 0 10 7 6 15 -3 8 -2 15 3 15 5 0 16 26 26 58 10
31 22 62 26 68 5 6 6 14 2 17 -3 4 0 7 7 7 7 0 11 3 8 6 -4 3 0 20 7 37 7 18
14 35 14 39 2 11 29 93 49 148 6 17 10 32 16 58 3 9 5 17 6 17 1 0 4 13 6 30
3 16 10 33 16 36 7 4 5 9 -3 12 -11 4 -11 6 -1 6 7 1 10 6 7 11 -3 6 -2 10 3
10 5 0 8 11 7 25 -2 14 0 25 4 25 7 0 22 81 57 305 3 22 7 63 8 92 0 28 4 54
8 58 3 4 2 19 -2 35 -4 16 -5 31 -2 35 13 13 19 507 8 645 -6 70 -19 188 -30
270 -6 42 -9 59 -21 120 -3 14 -7 41 -10 60 -3 19 -8 49 -13 65 -4 17 -8 37
-7 45 0 8 -3 17 -7 20 -4 3 -9 21 -11 40 -2 19 -7 42 -10 50 -10 27 -69 255
-70 268 0 6 -3 12 -7 12 -4 0 -7 6 -8 13 -4 31 -10 54 -20 80 -7 15 -14 38
-16 50 -6 27 -29 90 -36 97 -3 3 -7 16 -9 30 -1 13 -9 33 -16 43 -8 11 -11 26
-8 33 3 8 0 14 -6 14 -6 0 -11 7 -11 15 0 8 -4 23 -9 33 -5 9 -20 43 -32 75
-13 31 -26 57 -29 57 -4 0 -7 6 -7 13 0 19 -28 83 -125 280 -49 97 -87 178
-85 180 1 2 -6 11 -15 21 -10 10 -18 23 -19 29 0 7 -10 28 -23 47 l-23 34 26
51 c14 27 30 53 36 57 5 4 7 8 2 8 -4 0 3 17 16 38 12 20 31 56 41 80 11 23
24 42 29 42 6 0 8 3 4 6 -3 4 5 26 18 50 14 24 22 44 19 44 -4 0 -2 6 4 13 44
53 108 267 80 267 -4 0 -8 7 -8 15 0 20 -60 86 -71 79 -5 -3 -9 1 -9 8 0 13
-27 28 -90 49 -19 7 -41 16 -47 22 -7 5 -13 7 -13 3 0 -3 -12 -1 -27 5 -16 6
-41 13 -58 15 -16 3 -42 10 -57 16 -15 5 -35 8 -43 4 -9 -3 -13 -2 -10 4 3 5
-4 10 -17 9 -44 0 -138 23 -138 34 0 7 5 32 11 57 10 39 25 109 44 200 3 14 6
32 6 40 0 8 3 22 6 30 6 15 8 24 17 95 3 22 5 40 6 40 2 0 9 35 14 70 51 353
54 381 60 515 1 36 5 71 10 78 4 6 3 12 -1 12 -5 0 -9 17 -10 38 -5 116 -94
196 -229 206 -22 1 -44 5 -50 8 -11 7 -334 5 -334 -2 0 -3 -24 -6 -53 -8 -57
-2 -113 -8 -197 -18 -30 -4 -73 -7 -95 -8 -22 -1 -42 -4 -45 -7 -3 -4 -43 -10
-90 -13 -46 -4 -88 -10 -92 -12 -7 -4 -55 -11 -138 -19 -19 -1 -35 -4 -35 -5
0 -1 -13 -3 -30 -5 -56 -7 -110 -15 -145 -20 -19 -3 -61 -8 -93 -11 -57 -6
-59 -5 -93 30 -19 20 -38 36 -41 36 -3 0 -16 11 -29 25 -13 14 -27 25 -31 25
-5 0 -16 8 -24 18 -30 34 -89 82 -99 82 -6 0 -8 5 -5 10 3 6 2 10 -3 10 -5 0
-25 14 -43 30 -19 17 -47 40 -62 53 -15 12 -41 34 -57 50 -17 15 -33 27 -38
27 -4 0 -20 12 -37 28 -31 29 -71 61 -125 102 -19 14 -48 37 -64 51 -17 14
-78 61 -136 104 -58 43 -108 83 -112 89 -4 6 -8 7 -8 3 0 -4 -10 2 -22 13 -13
12 -38 30 -55 41 -18 12 -33 25 -33 30 0 5 -7 9 -15 9 -8 0 -24 8 -34 18 -41
36 -56 47 -64 44 -4 -1 -10 5 -13 13 -4 8 -12 15 -20 15 -8 0 -14 3 -14 8 0 4
-18 18 -40 32 -22 14 -40 29 -40 34 0 5 -3 7 -6 3 -3 -3 -11 -1 -18 4 -23 21
-208 139 -217 139 -5 0 -9 5 -9 10 0 6 -6 10 -13 10 -8 0 -22 9 -32 20 -10 11
-24 20 -32 20 -7 0 -13 5 -13 11 0 5 -5 7 -10 4 -6 -3 -13 1 -16 9 -3 9 -11
13 -16 10 -6 -4 -13 -2 -17 4 -7 11 -107 70 -133 79 -10 3 -18 10 -18 15 0 5
-4 6 -10 3 -5 -3 -10 -1 -10 5 0 6 -4 9 -9 5 -5 -3 -12 -1 -16 5 -3 6 -25 20
-48 31 -23 12 -44 25 -47 28 -3 3 -23 15 -45 26 -22 11 -43 24 -46 28 -3 5
-12 9 -20 11 -8 1 -25 8 -39 16 -14 8 -28 13 -32 12 -5 -1 -8 3 -8 8 0 6 -6
10 -13 10 -19 0 -67 24 -67 33 0 5 -4 5 -10 2 -5 -3 -10 -1 -10 4 0 6 -5 11
-11 11 -15 0 -142 62 -150 73 -3 5 -10 9 -15 9 -5 0 -40 15 -79 33 -64 29
-102 46 -115 50 -3 1 -23 9 -45 19 -22 10 -80 34 -130 53 -49 19 -93 39 -96
45 -3 5 -10 8 -15 6 -5 -1 -19 3 -31 10 -13 7 -23 10 -23 6 0 -3 -6 -2 -12 3
-7 6 -38 18 -68 27 -30 9 -62 20 -70 23 -8 3 -24 8 -35 10 -11 2 -24 8 -29 13
-4 4 -15 6 -22 3 -8 -3 -14 0 -14 6 0 7 -6 11 -12 10 -7 -1 -20 1 -28 4 -18 8
-229 77 -250 82 -8 2 -69 17 -135 35 -66 17 -129 33 -140 35 -11 2 -22 4 -25
5 -3 2 -8 2 -12 1 -5 0 -8 2 -8 6 0 5 -10 9 -22 9 -29 2 -79 13 -90 20 -5 3
-24 8 -41 10 -18 3 -44 9 -59 14 -20 6 -28 6 -28 -3 0 -9 -2 -9 -8 -1 -4 6
-27 15 -52 19 -25 4 -49 10 -54 13 -5 3 -23 6 -40 7 -36 2 -141 21 -141 25 0
2 -22 5 -100 14 -16 2 -30 5 -30 6 0 3 -38 9 -97 15 -31 3 -65 7 -75 9 -54 10
-200 29 -230 29 -7 0 -13 3 -13 6 0 3 -27 6 -61 5 -33 0 -62 3 -64 6 -2 4 -23
6 -47 4 -23 -1 -47 1 -53 5 -5 4 -31 6 -57 6 -27 -1 -48 2 -48 5 0 3 -31 5
-70 5 -38 -1 -70 3 -70 8 0 5 -7 4 -15 -3 -9 -7 -15 -8 -15 -2 0 5 -23 10 -52
10 -52 0 -263 10 -263 12 0 3 -135 9 -350 15 -126 4 -246 7 -266 8 -19 0 -40
-2 -46 -6 -5 -4 -13 -3 -17 1 -12 11 -316 11 -316 0 0 -7 -5 -7 -12 -1 -16 11
-118 11 -135 0 -7 -5 -13 -5 -13 0 0 4 -25 8 -55 8 -30 0 -55 -2 -55 -5z
m-2697 -11102 c-8 -35 -16 -72 -19 -83 -3 -11 -7 -36 -9 -55 -3 -19 -7 -46
-10 -60 -5 -23 -10 -58 -20 -130 -2 -14 -4 -25 -5 -25 -2 0 -4 -16 -5 -35 -2
-19 -4 -35 -5 -35 -2 0 -4 -9 -5 -20 -2 -11 -8 -56 -14 -100 -13 -97 -23 -192
-23 -223 0 -12 -4 -24 -8 -27 -4 -3 -4 -24 0 -47 5 -24 11 -68 15 -98 3 -30 8
-62 10 -70 2 -8 7 -40 10 -70 7 -64 15 -76 41 -61 11 6 60 22 109 36 50 15 97
29 105 32 8 4 17 7 20 8 20 7 46 19 50 24 3 3 16 12 30 20 14 8 81 47 150 87
69 40 133 79 143 88 9 9 17 14 17 11 0 -8 124 57 132 69 4 6 8 7 8 3 0 -5 12
0 28 10 29 20 71 40 86 41 5 0 12 4 15 9 3 5 38 25 76 45 39 20 97 50 130 67
33 17 65 31 71 31 7 0 14 4 16 9 2 5 10 11 18 13 8 2 17 5 20 8 3 3 28 16 55
28 28 13 57 28 65 33 8 5 29 15 45 23 169 79 210 99 213 107 2 4 10 5 18 2 8
-3 14 -1 14 5 0 9 47 27 63 24 4 -1 7 2 7 8 0 5 4 10 9 10 5 0 42 15 83 34
162 75 215 99 253 114 22 8 43 20 47 26 4 6 8 7 8 2 0 -5 7 -3 15 4 8 7 15 9
15 6 0 -4 12 0 28 8 44 25 182 85 182 80 0 -3 -21 -24 -47 -47 -94 -84 -328
-327 -375 -389 -15 -20 -36 -44 -45 -54 -10 -10 -18 -20 -18 -23 0 -3 -10 -17
-22 -31 -40 -46 -58 -68 -73 -90 -8 -12 -34 -48 -57 -81 -24 -32 -43 -61 -43
-64 0 -3 -11 -18 -24 -32 -14 -15 -23 -30 -20 -35 3 -4 1 -8 -3 -8 -5 0 -17
-15 -28 -32 -10 -18 -21 -35 -24 -38 -3 -3 -13 -17 -21 -32 -43 -78 -85 -143
-92 -146 -4 -2 -8 -8 -8 -13 0 -6 -16 -34 -35 -64 -19 -30 -31 -55 -27 -55 4
0 2 -4 -4 -8 -15 -10 -68 -102 -59 -102 4 0 3 -6 -3 -12 -6 -7 -11 -17 -12
-23 -4 -15 -7 -26 -28 -88 l-20 -57 41 5 c23 3 56 7 72 9 62 8 105 18 105 26
0 4 6 7 13 7 23 -1 77 15 77 24 0 4 9 6 20 4 11 -2 20 1 20 7 0 6 3 8 7 5 3
-4 12 -2 20 4 7 6 13 8 13 4 0 -4 6 -3 13 2 6 5 39 18 72 29 33 10 63 23 67
29 4 5 8 7 8 3 0 -4 12 -3 28 3 15 6 34 12 42 14 8 2 30 8 48 14 17 5 32 7 32
3 0 -3 5 -1 12 6 15 15 48 16 48 1 0 -6 -5 -19 -11 -30 -10 -19 -8 -20 28 -18
21 1 42 5 47 7 5 3 25 6 45 8 35 3 65 13 126 39 17 8 44 17 60 21 17 4 45 15
63 25 17 10 32 17 32 14 0 -3 24 5 53 16 28 11 81 23 117 25 36 3 76 7 90 9
14 3 63 7 110 11 47 3 90 7 97 9 6 2 67 7 135 10 68 3 159 8 203 11 44 2 153
5 242 7 90 1 163 4 163 7 0 11 469 -1 575 -15 22 -3 69 -12 103 -21 35 -8 72
-16 83 -17 10 -1 19 -5 19 -10 0 -4 5 -5 10 -2 6 3 10 1 10 -5 0 -6 6 -10 13
-9 14 3 110 -42 115 -53 2 -5 8 -8 13 -8 6 0 20 -12 33 -27 28 -32 24 -63 -14
-103 -16 -17 -26 -30 -24 -30 6 0 -15 -26 -38 -48 -10 -9 -18 -20 -18 -24 0
-5 -8 -16 -17 -26 -24 -25 -52 -60 -87 -107 -29 -40 -180 -192 -226 -230 -32
-25 -130 -75 -130 -67 0 4 -4 1 -8 -6 -12 -18 -259 -37 -278 -21 -8 7 -14 7
-19 -1 -3 -6 -10 -8 -15 -5 -5 3 -35 8 -67 11 -32 3 -71 7 -88 9 -16 1 -30 4
-30 5 0 1 -16 4 -35 6 -70 9 -95 12 -95 14 0 1 -11 3 -25 5 -82 11 -221 38
-258 49 -9 3 -35 8 -57 12 -22 3 -44 9 -50 12 -9 6 -53 13 -87 15 -10 1 -18 5
-18 9 0 4 -10 8 -22 8 -28 1 -108 22 -126 34 -7 4 -16 6 -19 3 -3 -3 -17 -1
-32 5 -14 5 -35 12 -46 14 -42 10 -50 13 -50 14 0 2 -36 10 -57 12 -10 1 -18
5 -18 8 0 4 -6 7 -12 7 -13 0 -151 37 -198 52 -21 7 -91 27 -125 36 -24 6 -33
9 -80 25 -27 9 -52 18 -55 18 -3 0 -12 3 -20 6 -99 32 -106 34 -165 42 -61 8
-87 12 -118 17 -26 6 -26 4 19 -51 25 -31 50 -58 55 -60 5 -2 9 -9 9 -15 0
-11 80 -88 141 -137 17 -14 41 -34 53 -45 12 -11 42 -36 67 -55 24 -19 46 -38
47 -42 2 -5 9 -8 15 -8 7 0 25 -14 41 -30 16 -17 34 -30 39 -30 5 0 20 -11 33
-25 13 -14 27 -25 32 -25 5 0 17 -9 27 -20 10 -11 22 -20 27 -20 5 0 33 -18
63 -40 30 -22 55 -38 55 -35 0 3 12 -6 28 -20 15 -14 35 -28 45 -31 9 -3 17
-10 17 -15 0 -6 4 -8 9 -5 5 4 11 3 13 -1 1 -5 32 -28 68 -52 36 -25 68 -49
71 -54 3 -5 9 -8 13 -8 3 1 31 -14 61 -34 31 -19 60 -35 65 -35 6 0 10 -4 10
-10 0 -5 7 -10 15 -10 8 0 15 -5 15 -11 0 -5 4 -8 9 -5 5 3 14 -1 21 -9 7 -8
16 -15 21 -15 5 0 28 -12 52 -27 23 -15 51 -32 62 -38 50 -28 70 -41 75 -47 3
-4 26 -16 50 -27 57 -26 40 -26 -135 0 -77 11 -158 23 -180 25 -22 3 -51 7
-65 9 -14 1 -45 6 -70 10 -25 4 -61 8 -81 10 -19 1 -39 4 -45 7 -5 2 -24 4
-41 3 -18 0 -33 2 -33 6 0 3 -8 6 -17 6 -17 -1 -141 12 -173 18 -8 1 -46 6
-83 9 -37 4 -78 9 -90 12 -12 3 -42 7 -67 9 -25 2 -65 7 -90 11 -25 3 -60 6
-77 7 -18 0 -33 3 -33 6 0 4 -17 6 -37 6 -21 -1 -42 1 -48 4 -10 6 -55 11
-112 14 -18 1 -33 5 -33 8 0 4 -24 10 -54 13 -29 4 -74 13 -99 21 -25 7 -48
11 -51 8 -3 -4 -6 -1 -6 6 0 7 -4 10 -8 7 -5 -3 -20 1 -35 9 -14 7 -28 11 -31
8 -3 -3 -12 0 -21 7 -8 7 -15 9 -15 5 0 -4 -6 -3 -12 3 -7 6 -16 11 -21 11
-11 0 -161 72 -167 80 -5 6 -55 34 -97 55 -13 6 -23 14 -23 19 0 4 -5 7 -11 7
-14 0 -182 110 -187 122 -2 5 -8 6 -13 2 -5 -3 -9 0 -9 5 0 6 -7 11 -15 11 -8
0 -15 5 -15 10 0 6 -6 10 -13 10 -8 0 -22 9 -32 20 -10 11 -22 20 -27 20 -5 0
-18 9 -30 20 -12 11 -28 20 -35 20 -7 0 -13 3 -13 8 0 4 -20 18 -45 32 -25 14
-45 28 -45 32 0 5 -7 8 -15 8 -8 0 -15 5 -15 11 0 5 -4 7 -10 4 -5 -3 -10 -3
-10 2 0 4 -27 24 -60 43 -33 19 -60 39 -60 43 0 5 -4 5 -10 2 -5 -3 -10 -2
-10 3 0 8 -50 36 -59 32 -2 -1 -7 3 -11 9 -3 7 -31 27 -61 46 -30 19 -60 39
-66 45 -7 6 -13 7 -13 3 0 -4 -4 -3 -8 3 -9 13 -190 134 -201 134 -4 0 -16 9
-26 20 -10 11 -23 20 -29 20 -7 0 -19 9 -29 20 -9 11 -23 20 -30 20 -8 0 -22
9 -32 20 -10 11 -24 20 -32 20 -7 0 -13 5 -13 10 0 6 -7 10 -15 10 -8 0 -15 5
-15 10 0 6 -6 10 -12 10 -7 0 -26 11 -42 25 -16 14 -33 25 -37 25 -4 0 -14 6
-21 13 -25 23 -136 97 -147 97 -6 0 -11 5 -11 10 0 6 -6 10 -14 10 -8 0 -17 7
-20 16 -4 9 -9 14 -12 11 -3 -3 -14 2 -25 11 -11 9 -21 15 -23 12 -1 -3 -10 3
-20 13 -17 16 -17 19 0 65 10 26 22 52 27 59 5 7 6 17 2 23 -3 5 -1 10 5 10 6
0 8 5 5 10 -3 6 -2 10 3 10 4 0 21 39 36 88 16 48 31 94 34 102 3 8 6 18 7 23
2 4 4 8 5 10 1 1 3 13 4 27 2 14 8 35 15 48 6 12 9 22 6 22 -3 0 -2 8 4 18 9
17 17 65 26 157 3 28 8 70 12 95 11 80 1 195 -23 262 -7 21 -10 38 -7 38 4 0
-1 6 -11 13 -14 11 -8 12 44 12 33 0 60 -3 60 -7 0 -4 12 -3 26 2 18 7 23 7
18 -2 -5 -7 -3 -8 6 -3 8 5 39 9 69 11 31 1 67 5 81 9 14 4 34 8 45 9 11 2 27
5 35 8 16 6 102 27 134 34 10 2 21 6 24 9 16 15 17 -1 5 -57z"/>
</g>
</svg>
